<svg width="82" height="72" viewBox="0 0 82 72" fill="none" xmlns="http://www.w3.org/2000/svg">
<path d="M73.2618 9.65249C72.4674 9.0665 71.5062 8.6815 70.4814 8.5388C69.4566 8.3961 68.407 8.50108 67.445 8.84249L8.7381 29.475C7.88232 29.7871 7.15105 30.3149 6.6366 30.9916C6.12215 31.6684 5.8476 32.4638 5.8476 33.2775C5.8476 34.0912 6.12215 34.8866 6.6366 35.5633C7.15105 36.2401 7.88232 36.7679 8.7381 37.08L12.5306 38.4525C13.1559 38.6847 13.8606 38.6896 14.49 38.466C15.1194 38.2424 15.622 37.8087 15.8875 37.26C16.0177 36.9867 16.0852 36.6936 16.0861 36.3974C16.087 36.1012 16.0213 35.8078 15.8927 35.5339C15.7642 35.2601 15.5753 35.0112 15.3369 34.8016C15.0986 34.592 14.8154 34.4258 14.5037 34.3125L11.685 33.3L69.3669 13.05C69.4555 13.0022 69.5575 12.977 69.6615 12.977C69.7656 12.977 69.8675 13.0022 69.9562 13.05C70.0399 13.1123 70.103 13.1932 70.139 13.2842C70.1751 13.3752 70.1827 13.473 70.1612 13.5675L59.6294 56.7225C59.5948 56.8762 59.5152 57.0193 59.3983 57.1377C59.2815 57.2561 59.1315 57.3456 58.9631 57.3975C58.7979 57.455 58.6182 57.4729 58.4425 57.4492C58.2669 57.4254 58.1016 57.361 57.9637 57.2625L37.4637 43.2225L57.5281 25.425C57.9567 25.0345 58.2103 24.5213 58.2422 23.9797C58.2741 23.4381 58.0821 22.9046 57.7016 22.4775C57.3212 22.0503 56.7778 21.7581 56.1715 21.6548C55.5651 21.5514 54.9367 21.6438 54.4019 21.915L24.9844 37.215C24.6576 37.3446 24.3655 37.5331 24.1269 37.7681C23.8883 38.0031 23.7085 38.2794 23.5992 38.5793C23.4899 38.8791 23.4534 39.1957 23.4922 39.5087C23.531 39.8217 23.6442 40.124 23.8244 40.3962C24.0046 40.6684 24.2479 40.9043 24.5384 41.0888C24.829 41.2732 25.1604 41.402 25.5113 41.467C25.8621 41.5319 26.2246 41.5314 26.5752 41.4656C26.9259 41.3998 27.2569 41.2702 27.5469 41.085L39.9237 34.6725L33.9018 40.05C33.351 40.5045 32.9214 41.0603 32.6439 41.6777C32.3664 42.2951 32.248 42.9588 32.2969 43.6211C32.3459 44.2834 32.5612 44.9281 32.9272 45.5088C33.2933 46.0895 33.8011 46.5919 34.4144 46.98L54.9144 60.8175C55.9933 61.5486 57.3183 61.9443 58.6812 61.9425C59.407 61.9379 60.1264 61.8237 60.8081 61.605C61.787 61.2964 62.6592 60.7723 63.3412 60.0829C64.0233 59.3934 64.4922 58.5617 64.7031 57.6675L75.1581 14.5575C75.38 13.6658 75.3207 12.7378 74.9866 11.8735C74.6525 11.0092 74.0561 10.2413 73.2618 9.65249Z" fill="black"/>
</svg>
